<svg xmlns="http://www.w3.org/2000/svg" width="1200" height="856" viewBox="0 0 1200 856" font-family="ui-monospace, Menlo, monospace">
<style>.t{font-size:11px;fill:#3c2415}.r{text-anchor:end}.h{font:600 15px Georgia,serif;fill:#17120e}</style>
<rect width="100%" height="100%" fill="#f8f4ec"/>
<text x="12" y="26" class="h">Home · mobile · after M9</text>
<text x="12" y="46" class="t">Performance 90 · FCP 1.4 s · LCP 3.6 s · TBT 20 ms (simulated, Moto G Power / slow 4G) · 40 requests shown</text>
<line x1="747.2823218997362" x2="747.2823218997362" y1="88" y2="826" stroke="#2f6f4f" stroke-dasharray="4 3"/><text x="751.2823218997362" y="84" class="t" fill="#2f6f4f">FCP 179ms</text>
<line x1="747.2823218997362" x2="747.2823218997362" y1="88" y2="826" stroke="#a8322d" stroke-dasharray="4 3"/><text x="751.2823218997362" y="70" class="t" fill="#a8322d">LCP 179ms</text>
<text x="12" y="108" class="t">/</text>
<text x="352" y="108" class="t r">20.2 KB</text>
<rect x="361.7" y="99" width="11.7" height="12" rx="2" fill="#17120e"/>
<text x="12" y="126" class="t">ramond_latin_wght400_500-s.p.0n2ofvl0l8761.woff2</text>
<text x="352" y="126" class="t r">35.1 KB</text>
<rect x="395.1" y="117" width="21.9" height="12" rx="2" fill="#3c2415"/>
<text x="12" y="144" class="t">/inter_latin_wght400_600-s.p.0ka8pw-yga2n6.woff2</text>
<text x="352" y="144" class="t r">34.8 KB</text>
<rect x="395.6" y="135" width="21.6" height="12" rx="2" fill="#3c2415"/>
<text x="12" y="162" class="t">/_next/image</text>
<text x="352" y="162" class="t r">23.9 KB</text>
<rect x="395.9" y="153" width="21.5" height="12" rx="2" fill="#b67a4b"/>
<text x="12" y="180" class="t">/_next/static/chunks/2m58cv0wpy8p7.css</text>
<text x="352" y="180" class="t r">18.1 KB</text>
<rect x="403.1" y="171" width="23.2" height="12" rx="2" fill="#6d645b"/>
<text x="12" y="198" class="t">/manifest.webmanifest</text>
<text x="352" y="198" class="t r">1.0 KB</text>
<rect x="406.6" y="189" width="7.5" height="12" rx="2" fill="#c9bfb3"/>
<text x="12" y="216" class="t">/_next/static/chunks/3s6nzrbk-8mnv.js</text>
<text x="352" y="216" class="t r">2.4 KB</text>
<rect x="431.5" y="207" width="8.4" height="12" rx="2" fill="#a86a3c"/>
<text x="12" y="234" class="t">/_next/static/chunks/19mx3mg6lkumu.js</text>
<text x="352" y="234" class="t r">7.8 KB</text>
<rect x="434.3" y="225" width="11.1" height="12" rx="2" fill="#a86a3c"/>
<text x="12" y="252" class="t">/_next/static/chunks/196x_tfexoucg.js</text>
<text x="352" y="252" class="t r">70.3 KB</text>
<rect x="434.6" y="243" width="34.3" height="12" rx="2" fill="#a86a3c"/>
<text x="12" y="270" class="t">/_next/static/chunks/2-rtuqsgzmno4.js</text>
<text x="352" y="270" class="t r">44.5 KB</text>
<rect x="434.7" y="261" width="25.7" height="12" rx="2" fill="#a86a3c"/>
<text x="12" y="288" class="t">/_next/static/chunks/turbopack-2pbp3o93q4orj.js</text>
<text x="352" y="288" class="t r">4.6 KB</text>
<rect x="434.8" y="279" width="10.2" height="12" rx="2" fill="#a86a3c"/>
<text x="12" y="306" class="t">/_next/static/chunks/2lcymkwogeiac.js</text>
<text x="352" y="306" class="t r">8.9 KB</text>
<rect x="435.0" y="297" width="10.7" height="12" rx="2" fill="#a86a3c"/>
<text x="12" y="324" class="t">/_next/static/chunks/421liit_y_3nw.js</text>
<text x="352" y="324" class="t r">11.2 KB</text>
<rect x="440.2" y="315" width="19.0" height="12" rx="2" fill="#a86a3c"/>
<text x="12" y="342" class="t">/_next/static/chunks/343g3vbgeqn28.js</text>
<text x="352" y="342" class="t r">12.9 KB</text>
<rect x="445.8" y="333" width="15.0" height="12" rx="2" fill="#a86a3c"/>
<text x="12" y="360" class="t">/_next/static/chunks/2-8v7olrmiu_6.js</text>
<text x="352" y="360" class="t r">19.3 KB</text>
<rect x="446.0" y="351" width="23.6" height="12" rx="2" fill="#a86a3c"/>
<text x="12" y="378" class="t">/_next/static/chunks/086i5sgqa-4c2.js</text>
<text x="352" y="378" class="t r">13.2 KB</text>
<rect x="446.1" y="369" width="24.5" height="12" rx="2" fill="#a86a3c"/>
<text x="12" y="396" class="t">/_next/static/chunks/0h2qsuyze9ds1.js</text>
<text x="352" y="396" class="t r">4.0 KB</text>
<rect x="459.7" y="387" width="17.1" height="12" rx="2" fill="#a86a3c"/>
<text x="12" y="414" class="t">/_next/static/chunks/3h2lxaeh9o7qa.js</text>
<text x="352" y="414" class="t r">7.2 KB</text>
<rect x="461.5" y="405" width="19.9" height="12" rx="2" fill="#a86a3c"/>
<text x="12" y="432" class="t">tic/media/99e609270109b47d-s.40sczeszzbjw1.woff2</text>
<text x="352" y="432" class="t r">10.1 KB</text>
<rect x="660.9" y="423" width="9.8" height="12" rx="2" fill="#3c2415"/>
<text x="12" y="450" class="t">tic/media/8e363051431dfdfc-s.2wff_81h8x61u.woff2</text>
<text x="352" y="450" class="t r">23.4 KB</text>
<rect x="661.3" y="441" width="11.6" height="12" rx="2" fill="#3c2415"/>
<text x="12" y="468" class="t">/_next/image</text>
<text x="352" y="468" class="t r">24.0 KB</text>
<rect x="699.5" y="459" width="8.3" height="12" rx="2" fill="#b67a4b"/>
<text x="12" y="486" class="t">/icon.svg</text>
<text x="352" y="486" class="t r">0.5 KB</text>
<rect x="843.4" y="477" width="6.7" height="12" rx="2" fill="#c9bfb3"/>
<text x="12" y="504" class="t">/icons/icon-192.png</text>
<text x="352" y="504" class="t r">1.5 KB</text>
<rect x="866.7" y="495" width="7.4" height="12" rx="2" fill="#c9bfb3"/>
<text x="12" y="522" class="t">/_next/static/chunks/1c8c7conjst34.js</text>
<text x="352" y="522" class="t r">2.1 KB</text>
<rect x="953.1" y="513" width="8.5" height="12" rx="2" fill="#a86a3c"/>
<text x="12" y="540" class="t">/_next/static/chunks/3p61k9-wssa64.js</text>
<text x="352" y="540" class="t r">22.7 KB</text>
<rect x="958.7" y="531" width="10.7" height="12" rx="2" fill="#a86a3c"/>
<text x="12" y="558" class="t">/</text>
<text x="352" y="558" class="t r">0.7 KB</text>
<rect x="965.7" y="549" width="18.3" height="12" rx="2" fill="#8f867e"/>
<text x="12" y="576" class="t">/menu</text>
<text x="352" y="576" class="t r">0.7 KB</text>
<rect x="966.3" y="567" width="18.1" height="12" rx="2" fill="#8f867e"/>
<text x="12" y="594" class="t">/locations</text>
<text x="352" y="594" class="t r">0.7 KB</text>
<rect x="966.6" y="585" width="18.3" height="12" rx="2" fill="#8f867e"/>
<text x="12" y="612" class="t">/reservation</text>
<text x="352" y="612" class="t r">0.7 KB</text>
<rect x="966.8" y="603" width="18.2" height="12" rx="2" fill="#8f867e"/>
<text x="12" y="630" class="t">/shop</text>
<text x="352" y="630" class="t r">0.7 KB</text>
<rect x="1007.5" y="621" width="6.6" height="12" rx="2" fill="#8f867e"/>
<text x="12" y="648" class="t">/</text>
<text x="352" y="648" class="t r">4.7 KB</text>
<rect x="1011.3" y="639" width="15.3" height="12" rx="2" fill="#8f867e"/>
<text x="12" y="666" class="t">/</text>
<text x="352" y="666" class="t r">4.6 KB</text>
<rect x="1014.6" y="657" width="14.1" height="12" rx="2" fill="#8f867e"/>
<text x="12" y="684" class="t">/menu</text>
<text x="352" y="684" class="t r">3.4 KB</text>
<rect x="1015.9" y="675" width="13.3" height="12" rx="2" fill="#8f867e"/>
<text x="12" y="702" class="t">/locations</text>
<text x="352" y="702" class="t r">2.6 KB</text>
<rect x="1041.1" y="693" width="8.0" height="12" rx="2" fill="#8f867e"/>
<text x="12" y="720" class="t">/reservation</text>
<text x="352" y="720" class="t r">2.1 KB</text>
<rect x="1046.2" y="711" width="9.9" height="12" rx="2" fill="#8f867e"/>
<text x="12" y="738" class="t">/shop</text>
<text x="352" y="738" class="t r">2.9 KB</text>
<rect x="1049.7" y="729" width="7.7" height="12" rx="2" fill="#8f867e"/>
<text x="12" y="756" class="t">/_next/static/chunks/0cg9859r3ilx0.js</text>
<text x="352" y="756" class="t r">4.9 KB</text>
<rect x="1051.7" y="747" width="11.5" height="12" rx="2" fill="#a86a3c"/>
<text x="12" y="774" class="t">/_next/static/chunks/098gd2rnic9qx.js</text>
<text x="352" y="774" class="t r">3.9 KB</text>
<rect x="1059.4" y="765" width="8.9" height="12" rx="2" fill="#a86a3c"/>
<text x="12" y="792" class="t">/_next/static/chunks/3do3uf9gyzbci.js</text>
<text x="352" y="792" class="t r">6.7 KB</text>
<rect x="1063.6" y="783" width="9.8" height="12" rx="2" fill="#a86a3c"/>
<text x="12" y="810" class="t">/_next/static/chunks/1w8x_6lxh3g7g.js</text>
<text x="352" y="810" class="t r">6.9 KB</text>
<rect x="1065.2" y="801" width="7.8" height="12" rx="2" fill="#a86a3c"/>
<rect x="12" y="836" width="10" height="10" fill="#17120e"/><text x="26" y="845" class="t">Document</text>
<rect x="130" y="836" width="10" height="10" fill="#6d645b"/><text x="144" y="845" class="t">Stylesheet</text>
<rect x="248" y="836" width="10" height="10" fill="#a86a3c"/><text x="262" y="845" class="t">Script</text>
<rect x="366" y="836" width="10" height="10" fill="#3c2415"/><text x="380" y="845" class="t">Font</text>
<rect x="484" y="836" width="10" height="10" fill="#b67a4b"/><text x="498" y="845" class="t">Image</text>
<rect x="602" y="836" width="10" height="10" fill="#905b33"/><text x="616" y="845" class="t">Media</text>
<rect x="720" y="836" width="10" height="10" fill="#8f867e"/><text x="734" y="845" class="t">Fetch</text>
<rect x="838" y="836" width="10" height="10" fill="#c9bfb3"/><text x="852" y="845" class="t">Other</text>
</svg>